<?xml version="1.0" standalone="no"?>
<!DOCTYPE svg PUBLIC "-//W3C//DTD SVG 20010904//EN"
 "http://www.w3.org/TR/2001/REC-SVG-20010904/DTD/svg10.dtd">
<svg version="1.0" xmlns="http://www.w3.org/2000/svg"
 width="512.000000pt" height="512.000000pt" viewBox="0 0 512.000000 512.000000"
 preserveAspectRatio="xMidYMid meet">

<g transform="translate(0.000000,512.000000) scale(0.100000,-0.100000)"
fill="#000000" stroke="none">
<path d="M2285 4819 c-534 -71 -1013 -313 -1375 -696 -263 -278 -457 -626
-549 -986 -59 -228 -66 -290 -66 -577 0 -287 7 -349 66 -577 208 -813 885
-1464 1708 -1643 300 -66 665 -67 961 -5 323 68 630 209 908 418 124 93 336
305 429 429 209 278 350 585 418 908 62 296 61 661 -5 961 -128 589 -504 1120
-1021 1440 -251 156 -521 258 -829 314 -111 20 -531 30 -645 14z m520 -284
c997 -124 1745 -971 1745 -1975 0 -1098 -892 -1990 -1990 -1990 -1004 0 -1851
748 -1975 1745 -94 749 249 1492 880 1908 247 163 576 283 860 315 128 15 351
13 480 -3z"/>
<path d="M1775 3093 c-346 -289 -631 -528 -632 -532 -2 -6 1250 -1053 1268
-1059 5 -2 10 178 11 451 l3 455 560 -453 560 -454 3 529 c1 292 1 769 0 1060
l-3 530 -560 -454 -560 -454 -3 454 c-1 250 -6 454 -10 454 -4 -1 -290 -237
-637 -527z"/>
</g>
</svg>
