<?xml version="1.0" standalone="no"?>
<!DOCTYPE svg PUBLIC "-//W3C//DTD SVG 20010904//EN"
 "http://www.w3.org/TR/2001/REC-SVG-20010904/DTD/svg10.dtd">
<svg version="1.0" xmlns="http://www.w3.org/2000/svg"
 width="512.000000pt" height="512.000000pt" viewBox="0 0 512.000000 512.000000"
 preserveAspectRatio="xMidYMid meet">

<g transform="translate(0.000000,512.000000) scale(0.100000,-0.100000)"
fill="#000000" stroke="none">
<path d="M2105 4813 c-734 -98 -1394 -575 -1725 -1248 -315 -639 -315 -1372 0
-2010 321 -651 923 -1102 1648 -1236 142 -26 477 -37 633 -19 575 63 1121 352
1485 784 520 617 680 1440 428 2195 -258 771 -915 1352 -1709 1510 -55 11
-138 25 -185 31 -119 14 -444 11 -575 -7z m567 -279 c1075 -139 1848 -1122
1724 -2193 -110 -942 -837 -1661 -1781 -1762 -135 -14 -395 -6 -520 16 -412
73 -763 249 -1054 530 -177 171 -308 349 -410 559 -139 285 -201 553 -201 876
0 323 62 593 200 876 297 606 890 1026 1560 1103 125 14 350 12 482 -5z"/>
<path d="M1280 2560 c0 -583 3 -1060 6 -1060 3 0 290 205 637 455 l632 456 3
-456 c1 -250 5 -455 8 -455 9 0 1264 1052 1264 1060 0 8 -1255 1060 -1264
1060 -3 0 -7 -205 -8 -455 l-3 -456 -632 456 c-347 250 -634 455 -637 455 -3
0 -6 -477 -6 -1060z"/>
</g>
</svg>
