<?xml version="1.0" standalone="no"?>
<!DOCTYPE svg PUBLIC "-//W3C//DTD SVG 20010904//EN"
 "http://www.w3.org/TR/2001/REC-SVG-20010904/DTD/svg10.dtd">
<svg version="1.0" xmlns="http://www.w3.org/2000/svg"
 width="980.000000pt" height="980.000000pt" viewBox="0 0 980.000000 980.000000"
 preserveAspectRatio="xMidYMid meet">

<g transform="translate(0.000000,980.000000) scale(0.100000,-0.100000)"
fill="#000000" stroke="none">
<path d="M4560 9789 c-1035 -75 -1992 -461 -2800 -1127 -148 -122 -500 -474
-622 -622 -534 -647 -880 -1372 -1042 -2180 -259 -1291 18 -2648 761 -3727
277 -403 628 -778 1018 -1087 930 -737 2150 -1115 3337 -1036 1418 95 2699
777 3569 1900 526 679 870 1511 978 2365 122 968 -36 1920 -464 2790 -236 479
-512 868 -895 1259 -813 830 -1836 1325 -3000 1451 -174 19 -664 27 -840 14z
m635 -489 c860 -63 1639 -349 2325 -853 338 -248 695 -608 941 -947 968 -1334
1120 -3075 395 -4546 -221 -449 -480 -809 -840 -1170 -361 -360 -721 -619
-1170 -840 -354 -174 -699 -292 -1086 -368 -1142 -227 -2303 0 -3284 641 -477
312 -924 755 -1243 1233 -399 599 -637 1258 -720 1993 -21 191 -24 683 -5 867
36 344 97 640 193 937 552 1714 2084 2918 3884 3052 162 12 450 12 610 1z"/>
<path d="M3265 7348 c-3 -7 -4 -1113 -3 -2458 l3 -2445 653 -3 652 -2 0 2460
0 2460 -650 0 c-511 0 -652 -3 -655 -12z"/>
<path d="M5260 4900 l0 -2460 653 2 652 3 0 2455 0 2455 -652 3 -653 2 0
-2460z"/>
</g>
</svg>
