<?xml version="1.0" standalone="no"?>
<!DOCTYPE svg PUBLIC "-//W3C//DTD SVG 20010904//EN"
 "http://www.w3.org/TR/2001/REC-SVG-20010904/DTD/svg10.dtd">
<svg version="1.0" xmlns="http://www.w3.org/2000/svg"
 width="835.000000pt" height="835.000000pt" viewBox="0 0 835.000000 835.000000"
 preserveAspectRatio="xMidYMid meet">

<g transform="translate(0.000000,835.000000) scale(0.100000,-0.100000)"
fill="#000000" stroke="none">
<path d="M3850 8330 c-549 -51 -1011 -177 -1482 -403 -836 -401 -1545 -1109
-1944 -1942 -294 -615 -427 -1236 -411 -1915 6 -250 21 -406 63 -640 194
-1101 849 -2099 1789 -2727 226 -151 551 -321 795 -416 842 -328 1789 -374
2657 -128 1195 339 2190 1210 2686 2352 437 1005 459 2155 60 3179 -60 153
-225 489 -307 622 -328 538 -737 970 -1237 1308 -569 385 -1170 608 -1869 695
-148 19 -658 28 -800 15z m715 -370 c1262 -132 2361 -867 2967 -1985 396 -730
540 -1601 402 -2430 -131 -785 -501 -1503 -1063 -2065 -850 -848 -2031 -1244
-3221 -1079 -1639 227 -2950 1500 -3224 3131 -40 232 -51 376 -50 653 0 354
35 631 119 950 169 646 490 1212 960 1694 666 683 1537 1082 2500 1145 100 6
503 -3 610 -14z"/>
<path d="M2822 6319 c-69 -34 -96 -85 -100 -183 -2 -45 1 -964 6 -2042 9
-1895 10 -1963 28 -2000 10 -21 36 -52 57 -68 34 -27 47 -31 100 -31 58 0 70
4 167 61 58 33 413 241 790 461 1031 602 2033 1187 2330 1360 146 85 277 168
292 185 45 51 54 141 20 203 -21 39 -70 73 -252 177 -102 58 -383 219 -625
358 -697 400 -1567 899 -2115 1213 -278 160 -523 298 -545 308 -53 25 -101 24
-153 -2z m1111 -961 c452 -259 1061 -609 1352 -776 292 -167 570 -327 618
-355 l88 -50 -28 -17 c-15 -10 -390 -229 -833 -488 -443 -258 -1079 -630
-1415 -826 l-610 -356 -7 393 c-4 215 -8 969 -10 1675 -2 1037 -1 1281 10
1277 7 -2 383 -217 835 -477z"/>
</g>
</svg>
